<svg xmlns="http://www.w3.org/2000/svg" viewBox="0 0 32 32">
  <defs>
    <linearGradient id="pg-grad" x1="0%" y1="0%" x2="0%" y2="100%">
      <stop offset="0%" style="stop-color:#336791"/>
      <stop offset="100%" style="stop-color:#264d73"/>
    </linearGradient>
  </defs>
  <ellipse cx="16" cy="16" rx="14" ry="14" fill="url(#pg-grad)"/>
  <path d="M21.5 10c-1.5-1-3.5-1.5-5.5-1.5s-4 .5-5.5 1.5c-1.5 1-2.5 2.5-2.5 4.5 0 1.5.5 2.8 1.5 3.8.3.3.3.8 0 1.2l-1.5 2c-.3.4-.1.9.4 1h2c.3 0 .5.2.5.5v2.5c0 .5.5 1 1 1s1-.5 1-1v-3c0-.3.2-.5.5-.5h1c.3 0 .5.2.5.5v3c0 .5.5 1 1 1s1-.5 1-1v-2.5c0-.3.2-.5.5-.5h2c.5.1.7-.6.4-1l-1.5-2c-.3-.4-.3-.9 0-1.2 1-.9 1.5-2.3 1.5-3.8 0-2-1-3.5-2.5-4.5z" fill="#fff"/>
  <circle cx="13" cy="14" r="1.5" fill="#336791"/>
  <circle cx="19" cy="14" r="1.5" fill="#336791"/>
</svg>
